#N canvas 748 419 450 300 12;
#X obj 17 56 oscparse;
#X obj 17 32 netreceive -u -b 8001;
#X obj 17 80 list trim;
#X obj 17 104 route cap;
#X obj 17 128 f;
#X floatatom 17 154 5 0 0 0 - - - 0;
#X connect 0 0 2 0;
#X connect 1 0 0 0;
#X connect 2 0 3 0;
#X connect 3 0 4 0;
#X connect 4 0 5 0;
