#N canvas 0 66 1920 976 12;
#X obj 84 64 oscparse;
#X obj 84 96 list trim;
#X obj 84 128 route cap;
#X obj 84 154 f;
#X floatatom 79 359 5 0 0 0 - - - 0;
#X obj 74 682 oscformat /qlc/1;
#X obj 689 610 oscformat /qlc/2;
#X obj 1356 635 oscformat /qlc/3;
#X obj 173 795 loadbang;
#X obj 84 32 netreceive -u -b 8001;
#X obj 684 27 netreceive -u -b 8002;
#X obj 1348 26 netreceive -u -b 8003;
#X floatatom 79 422 5 0 0 0 - - - 0;
#X obj 79 485 clip 0 1;
#X floatatom 79 544 5 0 0 0 - - - 0;
#X obj 79 327 float;
#X obj 85 210 pack f 7000;
#X floatatom 84 178 5 0 0 0 - - - 0;
#X floatatom 83 264 5 0 0 0 - - - 0;
#X obj 77 584 > 0.15;
#X obj 684 59 oscparse;
#X obj 684 91 list trim;
#X obj 684 123 route cap;
#X obj 684 155 f;
#X floatatom 685 328 5 0 0 0 - - - 0;
#X floatatom 681 406 5 0 0 0 - - - 0;
#X obj 681 469 clip 0 1;
#X floatatom 681 501 5 0 0 0 - - - 0;
#X obj 681 437 / 800;
#X obj 684 282 float;
#X obj 684 250 line;
#X obj 722 222 pack f 7000;
#X floatatom 776 171 5 0 0 0 - - - 0;
#X floatatom 684 219 5 0 0 0 - - - 0;
#X obj 679 560 > 0.15;
#X obj 1348 58 oscparse;
#X obj 1348 90 list trim;
#X obj 1348 122 route cap;
#X obj 1348 150 f;
#X floatatom 1348 326 5 0 0 0 - - - 0;
#X obj 1350 380 - 200;
#X floatatom 1350 412 5 0 0 0 - - - 0;
#X obj 1350 475 clip 0 1;
#X floatatom 1350 507 5 0 0 0 - - - 0;
#X obj 1350 443 / 800;
#X obj 1348 294 float;
#X obj 1279 288 line;
#X obj 1348 231 pack f 7000;
#X floatatom 1347 182 5 0 0 0 - - - 0;
#X floatatom 1348 263 5 0 0 0 - - - 0;
#X obj 1355 564 > 0.15;
#X msg 154 829 connect 192.168.1.150 10001;
#X msg 138 950 disconnect;
#X obj 139 932 netsend -u -b;
#X obj 767 876 netsend -u -b;
#X msg 767 908 disconnect;
#X obj 201 584 netsend -u -b;
#X msg 355 544 disconnect;
#X msg 244 498 connect 192.168.1.150 10003;
#X obj 700 741 t a a a;
#X obj 767 812 loadbang;
#X obj 244 466 loadbang;
#X obj 194 315 change;
#X obj 194 283 tgl 19 0 empty empty empty 0 -10 0 12 #fcfcfc #000000 #000000 0 1;
#X floatatom 194 347 5 0 0 0 - - - 0;
#X obj 194 378 oscformat /beta;
#X obj 215 430 oscformat /alpha;
#X obj 999 853 netsend -u -b;
#X msg 1001 886 disconnect;
#X obj 1003 766 loadbang;
#X msg 767 844 connect 192.168.1.178 10002;
#X obj 839 559 netsend -u -b;
#X msg 866 507 disconnect;
#X obj 861 438 loadbang;
#X obj 836 291 change;
#X obj 836 259 tgl 19 0 empty empty empty 0 -10 0 12 #fcfcfc #000000 #000000 0 1;
#X floatatom 836 323 5 0 0 0 - - - 0;
#X obj 836 354 oscformat /beta;
#X obj 844 401 oscformat /alpha;
#X msg 863 479 connect 192.168.1.150 10005;
#X obj 1505 606 netsend -u -b;
#X msg 1610 608 disconnect;
#X obj 1543 508 loadbang;
#X obj 1472 313 change;
#X obj 1470 249 > 400;
#X obj 1472 278 tgl 19 0 empty empty empty 0 -10 0 12 #fcfcfc #000000 #000000 0 1;
#X floatatom 1473 358 5 0 0 0 - - - 0;
#X obj 1479 389 oscformat /beta;
#X obj 1508 450 oscformat /alpha;
#X msg 1508 563 connect 192.168.1.150 10007;
#X msg 1003 798 connect 192.168.1.140 10004;
#X obj 79 453 / 800;
#X obj 79 390 - 100;
#X obj 681 366 - 150;
#X floatatom 1690 487 5 0 0 0 - - - 0;
#X obj 40 799 oscformat /rose;
#X floatatom 1709 414 14 0 0 0 - - - 0;
#N canvas 52 52 1123 753 slide 0;
#X obj 262 222 inlet;
#X obj 247 653 outlet;
#X obj 247 278 f;
#X obj 113 77 loadbang;
#X msg 116 164 1;
#X obj 374 400 moses 0;
#X obj 374 361 -;
#X obj 247 314 t f f;
#X obj 113 122 t b b;
#X obj 113 204 metro;
#X msg 159 162 50;
#X obj 247 514 expr $f2+($f1-$f2)*$f3;
#X obj 247 555 t f f f;
#X text 467 382 Les valeurs down et up déterminent le facteur du slide. Le facteur doit être entre 0 et 1 Plus le facteur est élevé \, plus c'est rapide.;
#X text 416 484 down : facteur de slide si la valeur baisse;
#X text 574 451 up : facteur de slide si la valeur monte;
#X obj 749 141 inlet;
#X text 193 161 Intervalle en millisecondes (plus le nombre est élevé \, plus c'est lent);
#X text 303 222 Entrée des données à «slider»;
#X text 795 140 Changer la valeur immédiatement;
#X obj 749 194 t f f;
#X msg 374 484 0.05;
#X msg 515 452 0.05;
#X connect 0 0 2 1;
#X connect 2 0 7 0;
#X connect 3 0 8 0;
#X connect 4 0 9 0;
#X connect 5 0 21 0;
#X connect 5 1 22 0;
#X connect 6 0 5 0;
#X connect 7 0 11 0;
#X connect 7 1 6 0;
#X connect 8 0 4 0;
#X connect 8 1 10 0;
#X connect 9 0 2 0;
#X connect 10 0 9 1;
#X connect 11 0 12 0;
#X connect 12 0 1 0;
#X connect 12 1 11 1;
#X connect 12 2 6 1;
#X connect 16 0 20 0;
#X connect 20 0 12 0;
#X connect 20 1 2 1;
#X connect 21 0 11 2;
#X connect 22 0 11 2;
#X restore 1687 371 pd slide;
#X obj 1687 339 clip 0 127;
#X obj 1686 311 / 3;
#X obj 1716 451 hsl 162 19 0 127 0 0 empty empty empty -2 -10 0 12 #fcfcfc #000000 #000000 0 1;
#X obj 489 658 oscformat /bleu;
#X floatatom 489 626 5 0 0 0 - - - 0;
#X floatatom 1262 569 5 0 0 0 - - - 0;
#X obj 1204 633 oscformat /jaune;
#X floatatom 288 911 5 0 0 0 - - - 0;
#X obj 481 798 tgl 19 0 empty empty empty 0 -10 0 12 #fcfcfc #000000 #000000 0 1;
#X obj 194 251 > 280;
#X obj 836 227 > 280;
#X obj 481 766 &&;
#X floatatom 105 638 5 0 0 0 - - - 0;
#X obj 45 755 spigot 1;
#X obj 580 594 spigot 1;
#X obj 481 830 t a a;
#X obj 541 829 t a a;
#X obj 596 824 tgl 19 0 empty empty empty 0 -10 0 12 #fcfcfc #000000 #000000 0 1;
#X obj 541 797 != 1;
#X obj 48 858 t a a;
#X obj 44 890 oscparse;
#X obj 44 914 print;
#X floatatom 1069 481 5 0 0 0 - - - 0;
#X floatatom 1080 362 14 0 0 0 - - - 0;
#N canvas 52 52 1123 753 slide 0;
#X obj 262 222 inlet;
#X obj 247 653 outlet;
#X obj 247 278 f;
#X obj 113 77 loadbang;
#X msg 116 164 1;
#X obj 374 400 moses 0;
#X obj 374 361 -;
#X obj 247 314 t f f;
#X obj 113 122 t b b;
#X obj 113 204 metro;
#X msg 159 162 50;
#X obj 247 514 expr $f2+($f1-$f2)*$f3;
#X obj 247 555 t f f f;
#X text 467 382 Les valeurs down et up déterminent le facteur du slide. Le facteur doit être entre 0 et 1 Plus le facteur est élevé \, plus c'est rapide.;
#X text 416 484 down : facteur de slide si la valeur baisse;
#X text 574 451 up : facteur de slide si la valeur monte;
#X obj 749 141 inlet;
#X text 193 161 Intervalle en millisecondes (plus le nombre est élevé \, plus c'est lent);
#X text 303 222 Entrée des données à «slider»;
#X text 795 140 Changer la valeur immédiatement;
#X obj 749 194 t f f;
#X msg 374 484 0.05;
#X msg 515 452 0.8;
#X connect 0 0 2 1;
#X connect 2 0 7 0;
#X connect 3 0 8 0;
#X connect 4 0 9 0;
#X connect 5 0 21 0;
#X connect 5 1 22 0;
#X connect 6 0 5 0;
#X connect 7 0 11 0;
#X connect 7 1 6 0;
#X connect 8 0 4 0;
#X connect 8 1 10 0;
#X connect 9 0 2 0;
#X connect 10 0 9 1;
#X connect 11 0 12 0;
#X connect 12 0 1 0;
#X connect 12 1 11 1;
#X connect 12 2 6 1;
#X connect 16 0 20 0;
#X connect 20 0 12 0;
#X connect 20 1 2 1;
#X connect 21 0 11 2;
#X connect 22 0 11 2;
#X restore 1056 314 pd slide;
#X obj 1056 282 clip 0 127;
#X obj 1055 254 / 3;
#X obj 1083 394 hsl 162 19 0 127 0 0 empty empty empty -2 -10 0 12 #fcfcfc #000000 #000000 0 1;
#X floatatom 372 428 5 0 0 0 - - - 0;
#X floatatom 380 369 14 0 0 0 - - - 0;
#N canvas 631 185 1123 753 slide 1;
#X obj 262 222 inlet;
#X obj 247 653 outlet;
#X obj 247 278 f;
#X obj 113 77 loadbang;
#X msg 116 164 1;
#X obj 374 400 moses 0;
#X obj 374 361 -;
#X obj 247 314 t f f;
#X obj 113 122 t b b;
#X obj 113 204 metro;
#X msg 159 162 50;
#X obj 247 514 expr $f2+($f1-$f2)*$f3;
#X obj 247 555 t f f f;
#X text 467 382 Les valeurs down et up déterminent le facteur du slide. Le facteur doit être entre 0 et 1 Plus le facteur est élevé \, plus c'est rapide.;
#X text 416 484 down : facteur de slide si la valeur baisse;
#X text 574 451 up : facteur de slide si la valeur monte;
#X obj 749 141 inlet;
#X text 193 161 Intervalle en millisecondes (plus le nombre est élevé \, plus c'est lent);
#X text 303 222 Entrée des données à «slider»;
#X text 795 140 Changer la valeur immédiatement;
#X obj 749 194 t f f;
#X msg 374 484 0.05;
#X msg 515 452 0.04;
#X connect 0 0 2 1;
#X connect 2 0 7 0;
#X connect 3 0 8 0;
#X connect 4 0 9 0;
#X connect 5 0 21 0;
#X connect 5 1 22 0;
#X connect 6 0 5 0;
#X connect 7 0 11 0;
#X connect 7 1 6 0;
#X connect 8 0 4 0;
#X connect 8 1 10 0;
#X connect 9 0 2 0;
#X connect 10 0 9 1;
#X connect 11 0 12 0;
#X connect 12 0 1 0;
#X connect 12 1 11 1;
#X connect 12 2 6 1;
#X connect 16 0 20 0;
#X connect 20 0 12 0;
#X connect 20 1 2 1;
#X connect 21 0 11 2;
#X connect 22 0 11 2;
#X restore 375 334 pd slide;
#X obj 375 302 clip 0 127;
#X obj 374 274 / 3;
#X obj 381 403 hsl 162 19 0 127 0 0 empty empty empty -2 -10 0 12 #fcfcfc #000000 #000000 0 1;
#X obj 485 547 oscformat /omega1;
#X obj 1067 532 oscformat /omega2;
#X obj 1714 653 oscformat /omega3;
#X obj 487 893 oscformat /mauve;
#X obj 286 936 oscformat /vert;
#X floatatom 501 864 5 0 0 0 - - - 0;
#X floatatom 1384 776 5 0 0 0 - - - 0;
#X obj 1370 805 oscformat /rouge;
#X obj 375 240 - 400;
#X obj 1056 220 - 400;
#X obj 1687 277 - 400;
#X connect 0 0 1 0;
#X connect 1 0 2 0;
#X connect 2 0 3 0;
#X connect 3 0 17 0;
#X connect 4 0 92 0;
#X connect 5 0 59 0;
#X connect 5 0 111 0;
#X connect 6 0 59 0;
#X connect 7 0 59 0;
#X connect 8 0 51 0;
#X connect 9 0 0 0;
#X connect 10 0 20 0;
#X connect 11 0 35 0;
#X connect 12 0 91 0;
#X connect 13 0 14 0;
#X connect 14 0 19 0;
#X connect 14 0 66 0;
#X connect 15 0 4 0;
#X connect 16 0 18 0;
#X connect 17 0 16 0;
#X connect 17 0 107 0;
#X connect 17 0 140 0;
#X connect 18 0 15 0;
#X connect 19 0 5 0;
#X connect 19 0 110 0;
#X connect 19 0 109 0;
#X connect 20 0 21 0;
#X connect 21 0 22 0;
#X connect 22 0 23 0;
#X connect 23 0 32 0;
#X connect 24 0 93 0;
#X connect 25 0 28 0;
#X connect 26 0 27 0;
#X connect 27 0 34 0;
#X connect 27 0 78 0;
#X connect 28 0 26 0;
#X connect 29 0 24 0;
#X connect 30 0 29 0;
#X connect 31 0 33 0;
#X connect 32 0 31 0;
#X connect 32 0 108 0;
#X connect 32 0 141 0;
#X connect 33 0 30 0;
#X connect 34 0 6 0;
#X connect 34 0 109 1;
#X connect 34 0 112 0;
#X connect 35 0 36 0;
#X connect 36 0 37 0;
#X connect 37 0 38 0;
#X connect 38 0 48 0;
#X connect 39 0 40 0;
#X connect 40 0 41 0;
#X connect 41 0 44 0;
#X connect 42 0 43 0;
#X connect 43 0 50 0;
#X connect 43 0 88 0;
#X connect 44 0 42 0;
#X connect 45 0 39 0;
#X connect 46 0 45 0;
#X connect 47 0 49 0;
#X connect 48 0 47 0;
#X connect 48 0 84 0;
#X connect 48 0 142 0;
#X connect 49 0 46 0;
#X connect 50 0 7 0;
#X connect 50 0 104 0;
#X connect 51 0 53 0;
#X connect 52 0 53 0;
#X connect 55 0 54 0;
#X connect 57 0 56 0;
#X connect 58 0 56 0;
#X connect 59 1 54 0;
#X connect 59 2 67 0;
#X connect 60 0 70 0;
#X connect 61 0 58 0;
#X connect 62 0 64 0;
#X connect 63 0 62 0;
#X connect 64 0 65 0;
#X connect 65 0 56 0;
#X connect 66 0 56 0;
#X connect 68 0 67 0;
#X connect 69 0 90 0;
#X connect 70 0 54 0;
#X connect 72 0 71 0;
#X connect 73 0 79 0;
#X connect 74 0 76 0;
#X connect 75 0 74 0;
#X connect 76 0 77 0;
#X connect 77 0 71 0;
#X connect 78 0 71 0;
#X connect 79 0 71 0;
#X connect 81 0 80 0;
#X connect 82 0 89 0;
#X connect 83 0 86 0;
#X connect 84 0 85 0;
#X connect 85 0 83 0;
#X connect 86 0 87 0;
#X connect 87 0 80 0;
#X connect 88 0 80 0;
#X connect 89 0 80 0;
#X connect 90 0 67 0;
#X connect 91 0 13 0;
#X connect 92 0 12 0;
#X connect 93 0 25 0;
#X connect 94 0 134 0;
#X connect 95 0 117 0;
#X connect 96 0 100 0;
#X connect 97 0 96 0;
#X connect 97 0 94 0;
#X connect 98 0 97 0;
#X connect 99 0 98 0;
#X connect 101 0 117 0;
#X connect 102 0 101 0;
#X connect 103 0 104 0;
#X connect 104 0 53 0;
#X connect 105 0 136 0;
#X connect 106 0 113 0;
#X connect 107 0 63 0;
#X connect 108 0 75 0;
#X connect 109 0 106 0;
#X connect 111 0 95 0;
#X connect 112 0 101 0;
#X connect 113 0 135 0;
#X connect 113 1 116 0;
#X connect 114 0 111 1;
#X connect 114 1 112 1;
#X connect 114 1 115 0;
#X connect 116 0 114 0;
#X connect 117 0 118 0;
#X connect 117 1 53 0;
#X connect 118 0 119 0;
#X connect 120 0 133 0;
#X connect 121 0 125 0;
#X connect 122 0 121 0;
#X connect 122 0 120 0;
#X connect 123 0 122 0;
#X connect 124 0 123 0;
#X connect 126 0 132 0;
#X connect 127 0 131 0;
#X connect 128 0 127 0;
#X connect 128 0 126 0;
#X connect 129 0 128 0;
#X connect 130 0 129 0;
#X connect 132 0 56 0;
#X connect 132 0 59 0;
#X connect 133 0 71 0;
#X connect 133 0 59 0;
#X connect 134 0 59 0;
#X connect 135 0 117 0;
#X connect 136 0 53 0;
#X connect 137 0 135 0;
#X connect 138 0 139 0;
#X connect 140 0 130 0;
#X connect 141 0 124 0;
#X connect 142 0 99 0;
