#N canvas 1668 999 1920 976 12;
#X obj 84 64 oscparse;
#X obj 84 96 list trim;
#X obj 84 128 route cap;
#X obj 84 154 f;
#X floatatom 86 309 5 0 0 0 - - - 0;
#X obj 120 688 oscformat /qlc/1;
#X obj 689 610 oscformat /qlc/2;
#X obj 1356 635 oscformat /qlc/3;
#X obj 84 32 netreceive -u -b 8001;
#X obj 684 27 netreceive -u -b 8002;
#X obj 1348 26 netreceive -u -b 8003;
#X floatatom 86 372 5 0 0 0 - - - 0;
#X obj 86 435 clip 0 1;
#X floatatom 84 482 5 0 0 0 - - - 0;
#X obj 86 277 float;
#X obj 85 214 pack f 7000;
#X floatatom 84 178 5 0 0 0 - - - 0;
#X floatatom 87 243 5 0 0 0 - - - 0;
#X obj 77 584 > 0.15;
#X obj 684 59 oscparse;
#X obj 684 91 list trim;
#X obj 684 123 route cap;
#X obj 684 155 f;
#X floatatom 688 329 5 0 0 0 - - - 0;
#X floatatom 681 406 5 0 0 0 - - - 0;
#X obj 681 469 clip 0 1;
#X floatatom 681 501 5 0 0 0 - - - 0;
#X obj 681 437 / 800;
#X obj 688 297 float;
#X obj 688 265 line;
#X obj 688 212 pack f 7000;
#X floatatom 687 185 5 0 0 0 - - - 0;
#X floatatom 689 240 5 0 0 0 - - - 0;
#X obj 663 566 > 0.15;
#X obj 1348 58 oscparse;
#X obj 1348 90 list trim;
#X obj 1348 122 route cap;
#X obj 1348 150 f;
#X floatatom 1350 351 5 0 0 0 - - - 0;
#X obj 1350 380 - 200;
#X floatatom 1350 412 5 0 0 0 - - - 0;
#X obj 1350 475 clip 0 1;
#X floatatom 1350 507 5 0 0 0 - - - 0;
#X obj 1350 443 / 800;
#X obj 1351 320 float;
#X obj 1349 291 line;
#X obj 1348 231 pack f 7000;
#X floatatom 1347 182 5 0 0 0 - - - 0;
#X floatatom 1348 263 5 0 0 0 - - - 0;
#X obj 1355 564 > 0.15;
#X obj 238 278 change;
#X obj 237 243 tgl 19 0 empty empty empty 0 -10 0 12 #fcfcfc #000000 #000000 0 1;
#X floatatom 237 316 5 0 0 0 - - - 0;
#X obj 239 349 oscformat /beta;
#X obj 246 389 oscformat /alpha;
#X obj 836 291 change;
#X obj 836 259 tgl 19 0 empty empty empty 0 -10 0 12 #fcfcfc #000000 #000000 0 1;
#X floatatom 836 323 5 0 0 0 - - - 0;
#X obj 836 354 oscformat /beta;
#X obj 853 406 oscformat /alpha;
#X obj 1472 313 change;
#X obj 1470 249 > 400;
#X obj 1472 278 tgl 19 0 empty empty empty 0 -10 0 12 #fcfcfc #000000 #000000 0 1;
#X floatatom 1473 358 5 0 0 0 - - - 0;
#X obj 1479 389 oscformat /beta;
#X obj 1506 452 oscformat /alpha;
#X obj 86 403 / 800;
#X obj 86 340 - 100;
#X obj 683 369 - 150;
#X floatatom 1690 487 5 0 0 0 - - - 0;
#X floatatom 1711 419 14 0 0 0 - - - 0;
#N canvas 52 52 1123 753 slide 0;
#X obj 262 222 inlet;
#X obj 247 653 outlet;
#X obj 247 278 f;
#X obj 113 77 loadbang;
#X msg 116 164 1;
#X obj 374 400 moses 0;
#X obj 374 361 -;
#X obj 247 314 t f f;
#X obj 113 122 t b b;
#X obj 113 204 metro;
#X msg 159 162 50;
#X obj 247 514 expr $f2+($f1-$f2)*$f3;
#X obj 247 555 t f f f;
#X text 467 382 Les valeurs down et up déterminent le facteur du slide. Le facteur doit être entre 0 et 1 Plus le facteur est élevé \, plus c'est rapide.;
#X text 416 484 down : facteur de slide si la valeur baisse;
#X text 574 451 up : facteur de slide si la valeur monte;
#X obj 749 141 inlet;
#X text 193 161 Intervalle en millisecondes (plus le nombre est élevé \, plus c'est lent);
#X text 303 222 Entrée des données à «slider»;
#X text 795 140 Changer la valeur immédiatement;
#X obj 749 194 t f f;
#X msg 374 484 0.05;
#X msg 515 452 0.05;
#X connect 0 0 2 1;
#X connect 2 0 7 0;
#X connect 3 0 8 0;
#X connect 4 0 9 0;
#X connect 5 0 21 0;
#X connect 5 1 22 0;
#X connect 6 0 5 0;
#X connect 7 0 11 0;
#X connect 7 1 6 0;
#X connect 8 0 4 0;
#X connect 8 1 10 0;
#X connect 9 0 2 0;
#X connect 10 0 9 1;
#X connect 11 0 12 0;
#X connect 12 0 1 0;
#X connect 12 1 11 1;
#X connect 12 2 6 1;
#X connect 16 0 20 0;
#X connect 20 0 12 0;
#X connect 20 1 2 1;
#X connect 21 0 11 2;
#X connect 22 0 11 2;
#X restore 1687 371 pd slide;
#X obj 1687 339 clip 0 127;
#X obj 1686 311 / 3;
#X obj 1716 451 hsl 162 19 0 127 0 0 empty empty empty -2 -10 0 12 #fcfcfc #000000 #000000 0 1;
#X obj 237 209 > 280;
#X obj 836 227 > 280;
#X floatatom 105 638 5 0 0 0 - - - 0;
#X floatatom 1069 481 5 0 0 0 - - - 0;
#X floatatom 1080 362 14 0 0 0 - - - 0;
#N canvas 52 52 1123 753 slide 0;
#X obj 262 222 inlet;
#X obj 247 653 outlet;
#X obj 247 278 f;
#X obj 113 77 loadbang;
#X msg 116 164 1;
#X obj 374 400 moses 0;
#X obj 374 361 -;
#X obj 247 314 t f f;
#X obj 113 122 t b b;
#X obj 113 204 metro;
#X msg 159 162 50;
#X obj 247 514 expr $f2+($f1-$f2)*$f3;
#X obj 247 555 t f f f;
#X text 467 382 Les valeurs down et up déterminent le facteur du slide. Le facteur doit être entre 0 et 1 Plus le facteur est élevé \, plus c'est rapide.;
#X text 416 484 down : facteur de slide si la valeur baisse;
#X text 574 451 up : facteur de slide si la valeur monte;
#X obj 749 141 inlet;
#X text 193 161 Intervalle en millisecondes (plus le nombre est élevé \, plus c'est lent);
#X text 303 222 Entrée des données à «slider»;
#X text 795 140 Changer la valeur immédiatement;
#X obj 749 194 t f f;
#X msg 374 484 0.05;
#X msg 515 452 0.8;
#X connect 0 0 2 1;
#X connect 2 0 7 0;
#X connect 3 0 8 0;
#X connect 4 0 9 0;
#X connect 5 0 21 0;
#X connect 5 1 22 0;
#X connect 6 0 5 0;
#X connect 7 0 11 0;
#X connect 7 1 6 0;
#X connect 8 0 4 0;
#X connect 8 1 10 0;
#X connect 9 0 2 0;
#X connect 10 0 9 1;
#X connect 11 0 12 0;
#X connect 12 0 1 0;
#X connect 12 1 11 1;
#X connect 12 2 6 1;
#X connect 16 0 20 0;
#X connect 20 0 12 0;
#X connect 20 1 2 1;
#X connect 21 0 11 2;
#X connect 22 0 11 2;
#X restore 1056 314 pd slide;
#X obj 1056 282 clip 0 127;
#X obj 1055 254 / 3;
#X obj 1083 394 hsl 162 19 0 127 0 0 empty empty empty -2 -10 0 12 #fcfcfc #000000 #000000 0 1;
#X floatatom 372 428 5 0 0 0 - - - 0;
#X floatatom 380 369 14 0 0 0 - - - 0;
#N canvas 631 185 1123 753 slide 0;
#X obj 262 222 inlet;
#X obj 247 653 outlet;
#X obj 247 278 f;
#X obj 113 77 loadbang;
#X msg 116 164 1;
#X obj 374 400 moses 0;
#X obj 374 361 -;
#X obj 247 314 t f f;
#X obj 113 122 t b b;
#X obj 113 204 metro;
#X msg 159 162 50;
#X obj 247 514 expr $f2+($f1-$f2)*$f3;
#X obj 247 555 t f f f;
#X text 467 382 Les valeurs down et up déterminent le facteur du slide. Le facteur doit être entre 0 et 1 Plus le facteur est élevé \, plus c'est rapide.;
#X text 416 484 down : facteur de slide si la valeur baisse;
#X text 574 451 up : facteur de slide si la valeur monte;
#X obj 749 141 inlet;
#X text 193 161 Intervalle en millisecondes (plus le nombre est élevé \, plus c'est lent);
#X text 303 222 Entrée des données à «slider»;
#X text 795 140 Changer la valeur immédiatement;
#X obj 749 194 t f f;
#X msg 374 484 0.05;
#X msg 515 452 0.04;
#X connect 0 0 2 1;
#X connect 2 0 7 0;
#X connect 3 0 8 0;
#X connect 4 0 9 0;
#X connect 5 0 21 0;
#X connect 5 1 22 0;
#X connect 6 0 5 0;
#X connect 7 0 11 0;
#X connect 7 1 6 0;
#X connect 8 0 4 0;
#X connect 8 1 10 0;
#X connect 9 0 2 0;
#X connect 10 0 9 1;
#X connect 11 0 12 0;
#X connect 12 0 1 0;
#X connect 12 1 11 1;
#X connect 12 2 6 1;
#X connect 16 0 20 0;
#X connect 20 0 12 0;
#X connect 20 1 2 1;
#X connect 21 0 11 2;
#X connect 22 0 11 2;
#X restore 375 334 pd slide;
#X obj 375 302 clip 0 127;
#X obj 374 274 / 3;
#X obj 381 403 hsl 162 19 0 127 0 0 empty empty empty -2 -10 0 12 #fcfcfc #000000 #000000 0 1;
#X obj 514 475 oscformat /omega1;
#X obj 1067 532 oscformat /omega2;
#X obj 1692 561 oscformat /omega3;
#X obj 372 197 - 400;
#X obj 1056 220 - 400;
#X obj 1687 277 - 400;
#X obj 974 877 spigot 1;
#N canvas 128 128 1920 976 sortie 0;
#X obj 120 109 loadbang;
#X msg 120 141 connect 192.168.1.150 10001;
#X msg 119 229 disconnect;
#X obj 121 190 netsend -u -b;
#X obj 408 201 netsend -u -b;
#X msg 412 238 disconnect;
#X obj 408 137 loadbang;
#X obj 681 216 netsend -u -b;
#X msg 676 250 disconnect;
#X msg 408 169 connect 192.168.1.178 10002;
#X msg 681 173 connect 192.168.1.140 10004;
#X obj 390 78 t a a a;
#X obj 407 23 inlet;
#X obj 681 133 loadbang;
#X text 107 59 connection avec qlc;
#X text 508 76 connection avec Touchdesigner (sol);
#X text 679 91 connection avec Touchdesigner (mur);
#X connect 0 0 1 0;
#X connect 1 0 3 0;
#X connect 2 0 3 0;
#X connect 5 0 4 0;
#X connect 6 0 9 0;
#X connect 8 0 7 0;
#X connect 9 0 4 0;
#X connect 10 0 7 0;
#X connect 11 0 3 0;
#X connect 11 1 4 0;
#X connect 11 2 7 0;
#X connect 12 0 11 0;
#X connect 13 0 10 0;
#X restore 976 921 pd sortie;
#N canvas 926 372 450 300 reaper10003 0;
#X obj 101 33 inlet;
#X obj 107 230 netsend -u -b;
#X msg 261 190 disconnect;
#X msg 150 144 connect 192.168.1.150 10003;
#X obj 75 91 loadbang;
#X connect 0 0 1 0;
#X connect 2 0 1 0;
#X connect 3 0 1 0;
#X connect 4 0 3 0;
#X restore 226 518 pd reaper10003;
#N canvas -207 141 1920 976 scene 0;
#X obj 118 49 inlet;
#X obj 197 52 inlet;
#X obj 288 56 inlet;
#X obj 189 213 t b f;
#X obj 249 213 t b f;
#X obj 185 269 pack f f f;
#X obj 185 327 unpack f f f;
#X text 1644 203 0 1 0 bleu 2;
#X text 1644 241 1 0 0 rose 4;
#X text 1636 181 0 0 1 jaune 1;
#X text 1637 279 1 1 0 mauve 6;
#X text 1643 222 0 1 1 vert 3;
#X text 1637 259 1 0 1 rouge 5;
#X text 1631 303 1 1 1 climax 7;
#X obj 221 364 * 2;
#X obj 182 412 * 4;
#X obj 182 437 +;
#X obj 416 482 +;
#X obj 283 390 * 1;
#X obj 576 557 select 0 1 2 3 4 5 6 7;
#X obj 473 925 outlet;
#X obj 118 138 tgl 19 0 empty empty empty 0 -10 0 12 #fcfcfc #000000 #000000 0 1;
#X obj 191 136 tgl 19 0 empty empty empty 0 -10 0 12 #fcfcfc #000000 #000000 0 1;
#X obj 287 130 tgl 19 0 empty empty empty 0 -10 0 12 #fcfcfc #000000 #000000 0 1;
#X floatatom 589 522 5 0 0 0 - - - 0;
#X obj 468 887 oscformat;
#X msg 467 855 set \$1 \, \$2;
#X obj 467 831 list;
#X floatatom 1484 191 5 0 0 0 - - - 0;
#X obj 113 103 change;
#X obj 195 88 change;
#X obj 289 95 change;
#X msg 36 584 jaune 0 \, bleu 0 \, vert 0 \, rose 0 \, rouge 0 \, mauve 0 \, climax 0;
#X msg 96 615 jaune 1 \, bleu 0 \, vert 0 \, rose 0 \, rouge 0 \, mauve 0 \, climax 0;
#X msg 230 647 jaune 0 \, bleu 1 \, vert 0 \, rose 0 \, rouge 0 \, mauve 0 \, climax 0;
#X msg 346 676 jaune 0 \, bleu 0 \, vert 1 \, rose 0 \, rouge 0 \, mauve 0 \, climax 0;
#X msg 441 711 jaune 0 \, bleu 0 \, vert 0 \, rose 1 \, rouge 0 \, mauve 0 \, climax 0;
#X msg 540 773 jaune 0 \, bleu 0 \, vert 0 \, rose 0 \, rouge 1 \, mauve 0 \, climax 0;
#X msg 491 742 jaune 0 \, bleu 0 \, vert 0 \, rose 0 \, rouge 0 \, mauve 1 \, climax 0;
#X msg 610 811 jaune 0 \, bleu 0 \, vert 0 \, rose 0 \, rouge 0 \, mauve 0 \, climax 1;
#X msg 1483 226 list rouge \$1;
#X text 116 28 rose;
#X text 198 27 bleu;
#X text 287 25 jaune;
#X text 1617 153 données binaires;
#X connect 0 0 29 0;
#X connect 1 0 30 0;
#X connect 2 0 31 0;
#X connect 3 0 5 0;
#X connect 3 1 5 1;
#X connect 4 0 5 0;
#X connect 4 1 5 2;
#X connect 5 0 6 0;
#X connect 6 0 15 0;
#X connect 6 1 14 0;
#X connect 6 2 18 0;
#X connect 14 0 16 1;
#X connect 15 0 16 0;
#X connect 16 0 17 0;
#X connect 17 0 24 0;
#X connect 18 0 17 1;
#X connect 19 0 32 0;
#X connect 19 1 33 0;
#X connect 19 2 34 0;
#X connect 19 3 35 0;
#X connect 19 4 36 0;
#X connect 19 5 37 0;
#X connect 19 6 38 0;
#X connect 19 7 39 0;
#X connect 21 0 5 0;
#X connect 22 0 3 0;
#X connect 23 0 4 0;
#X connect 24 0 19 0;
#X connect 25 0 20 0;
#X connect 26 0 25 0;
#X connect 27 0 26 0;
#X connect 28 0 40 0;
#X connect 29 0 21 0;
#X connect 30 0 22 0;
#X connect 31 0 23 0;
#X connect 32 0 27 0;
#X connect 33 0 27 0;
#X connect 34 0 27 0;
#X connect 35 0 27 0;
#X connect 36 0 27 0;
#X connect 37 0 27 0;
#X connect 38 0 27 0;
#X connect 39 0 27 0;
#X restore 895 723 pd scene;
#N canvas 739 292 450 300 reaper10005 0;
#X obj 101 33 inlet;
#X obj 107 230 netsend -u -b;
#X msg 261 190 disconnect;
#X obj 75 91 loadbang;
#X msg 150 144 connect 192.168.1.150 10005;
#X connect 0 0 1 0;
#X connect 2 0 1 0;
#X connect 3 0 4 0;
#X connect 4 0 1 0;
#X restore 850 559 pd reaper10005;
#N canvas 739 292 450 300 reaper10007 0;
#X obj 101 33 inlet;
#X obj 107 230 netsend -u -b;
#X msg 261 190 disconnect;
#X obj 75 91 loadbang;
#X msg 150 144 connect 192.168.1.150 10007;
#X connect 0 0 1 0;
#X connect 2 0 1 0;
#X connect 3 0 4 0;
#X connect 4 0 1 0;
#X restore 1479 560 pd reaper10007;
#X text 249 33 palque 1;
#X text 848 28 plaque 2;
#X text 1515 23 plaque 3;
#X text 371 172 données superflues;
#X text 1055 187 données superflues;
#X text 1684 239 données superflues;
#X text 222 163 données reaper booléennes;
#X text 847 171 données reaper booléennes;
#X text 1477 187 données reaper booléennes;
#X connect 0 0 1 0;
#X connect 1 0 2 0;
#X connect 2 0 3 0;
#X connect 3 0 16 0;
#X connect 4 0 67 0;
#X connect 5 0 96 0;
#X connect 6 0 96 0;
#X connect 7 0 96 0;
#X connect 8 0 0 0;
#X connect 9 0 19 0;
#X connect 10 0 34 0;
#X connect 11 0 66 0;
#X connect 12 0 13 0;
#X connect 13 0 18 0;
#X connect 13 0 54 0;
#X connect 14 0 4 0;
#X connect 15 0 17 0;
#X connect 16 0 15 0;
#X connect 16 0 75 0;
#X connect 16 0 93 0;
#X connect 17 0 14 0;
#X connect 18 0 5 0;
#X connect 18 0 77 0;
#X connect 18 0 99 0;
#X connect 19 0 20 0;
#X connect 20 0 21 0;
#X connect 21 0 22 0;
#X connect 22 0 31 0;
#X connect 23 0 68 0;
#X connect 24 0 27 0;
#X connect 25 0 26 0;
#X connect 26 0 33 0;
#X connect 26 0 59 0;
#X connect 27 0 25 0;
#X connect 28 0 23 0;
#X connect 29 0 28 0;
#X connect 30 0 32 0;
#X connect 31 0 30 0;
#X connect 31 0 76 0;
#X connect 31 0 94 0;
#X connect 32 0 29 0;
#X connect 33 0 6 0;
#X connect 33 0 99 1;
#X connect 34 0 35 0;
#X connect 35 0 36 0;
#X connect 36 0 37 0;
#X connect 37 0 47 0;
#X connect 38 0 39 0;
#X connect 39 0 40 0;
#X connect 40 0 43 0;
#X connect 41 0 42 0;
#X connect 42 0 49 0;
#X connect 42 0 65 0;
#X connect 43 0 41 0;
#X connect 44 0 38 0;
#X connect 45 0 44 0;
#X connect 46 0 48 0;
#X connect 47 0 46 0;
#X connect 47 0 61 0;
#X connect 47 0 95 0;
#X connect 48 0 45 0;
#X connect 49 0 7 0;
#X connect 49 0 99 2;
#X connect 50 0 52 0;
#X connect 51 0 50 0;
#X connect 52 0 53 0;
#X connect 53 0 98 0;
#X connect 54 0 98 0;
#X connect 55 0 57 0;
#X connect 56 0 55 0;
#X connect 57 0 58 0;
#X connect 58 0 100 0;
#X connect 59 0 100 0;
#X connect 60 0 63 0;
#X connect 61 0 62 0;
#X connect 62 0 60 0;
#X connect 63 0 64 0;
#X connect 64 0 101 0;
#X connect 65 0 101 0;
#X connect 66 0 12 0;
#X connect 67 0 11 0;
#X connect 68 0 24 0;
#X connect 69 0 92 0;
#X connect 70 0 74 0;
#X connect 71 0 70 0;
#X connect 71 0 69 0;
#X connect 72 0 71 0;
#X connect 73 0 72 0;
#X connect 75 0 51 0;
#X connect 76 0 56 0;
#X connect 78 0 91 0;
#X connect 79 0 83 0;
#X connect 80 0 79 0;
#X connect 80 0 78 0;
#X connect 81 0 80 0;
#X connect 82 0 81 0;
#X connect 84 0 90 0;
#X connect 85 0 89 0;
#X connect 86 0 85 0;
#X connect 86 0 84 0;
#X connect 87 0 86 0;
#X connect 88 0 87 0;
#X connect 90 0 96 0;
#X connect 90 0 98 0;
#X connect 91 0 96 0;
#X connect 91 0 100 0;
#X connect 92 0 96 0;
#X connect 92 0 101 0;
#X connect 93 0 88 0;
#X connect 94 0 82 0;
#X connect 95 0 73 0;
#X connect 96 0 97 0;
#X connect 99 0 96 0;
