#N canvas -183 0 1920 976 12;
#X obj 100 206 oscparse;
#X obj 100 177 netreceive -u -b 8001;
#X obj 100 230 list trim;
#X obj 100 254 route cap;
#X obj 100 278 f;
#X floatatom 100 304 5 0 0 0 - - - 0;
#X obj 349 234 oscparse;
#X obj 348 264 list trim;
#X obj 348 288 route cap;
#X obj 348 312 f;
#X floatatom 348 338 5 0 0 0 - - - 0;
#X obj 346 206 netreceive -u -b 8002;
#X obj 649 309 oscparse;
#X obj 649 333 list trim;
#X obj 649 357 route cap;
#X obj 649 381 f;
#X floatatom 649 407 5 0 0 0 - - - 0;
#X obj 649 285 netreceive -u -b 8003;
#X obj 1537 291 oscsend;
#X obj 111 909 netsend -u -b;
#X obj 89 730 oscformat /qlc/1;
#X obj 247 729 oscformat /qlc/2;
#X obj 404 725 oscformat /qlc/3;
#X obj 130 360 > 400;
#X obj 130 384 tgl 19 0 empty empty empty 0 -10 0 12 #fcfcfc #000000 #000000 0 1;
#X obj 128 411 change;
#X obj 80 392 bng 19 250 50 0 empty empty empty 0 -10 0 12 #fcfcfc #000000 #000000;
#X obj 80 451 bng 19 250 50 0 empty empty empty 0 -10 0 12 #fcfcfc #000000 #000000;
#X obj 283 823 loadbang;
#X msg 281 863 connect 192.168.1.150 10001;
#X obj 386 386 > 400;
#X obj 386 410 tgl 19 0 empty empty empty 0 -10 0 12 #fcfcfc #000000 #000000 0 1;
#X obj 384 437 change;
#X obj 336 418 bng 19 250 50 0 empty empty empty 0 -10 0 12 #fcfcfc #000000 #000000;
#X obj 336 477 bng 19 250 50 0 empty empty empty 0 -10 0 12 #fcfcfc #000000 #000000;
#X obj 641 449 > 400;
#X obj 641 473 tgl 19 0 empty empty empty 0 -10 0 12 #fcfcfc #000000 #000000 0 1;
#X obj 639 500 change;
#X obj 579 471 bng 19 250 50 0 empty empty empty 0 -10 0 12 #fcfcfc #000000 #000000;
#X obj 571 522 bng 19 250 50 0 empty empty empty 0 -10 0 12 #fcfcfc #000000 #000000;
#X connect 0 0 2 0;
#X connect 1 0 0 0;
#X connect 2 0 3 0;
#X connect 3 0 4 0;
#X connect 4 0 5 0;
#X connect 5 0 23 0;
#X connect 6 0 7 0;
#X connect 7 0 8 0;
#X connect 8 0 9 0;
#X connect 9 0 10 0;
#X connect 10 0 30 0;
#X connect 11 0 6 0;
#X connect 12 0 13 0;
#X connect 13 0 14 0;
#X connect 14 0 15 0;
#X connect 15 0 16 0;
#X connect 16 0 35 0;
#X connect 17 0 12 0;
#X connect 20 0 19 0;
#X connect 21 0 19 0;
#X connect 22 0 19 0;
#X connect 23 0 24 0;
#X connect 23 0 26 0;
#X connect 24 0 25 0;
#X connect 25 0 27 0;
#X connect 25 0 20 0;
#X connect 28 0 29 0;
#X connect 29 0 19 0;
#X connect 30 0 31 0;
#X connect 30 0 33 0;
#X connect 31 0 32 0;
#X connect 32 0 34 0;
#X connect 32 0 21 0;
#X connect 35 0 36 0;
#X connect 35 0 38 0;
#X connect 36 0 37 0;
#X connect 37 0 39 0;
#X connect 37 0 22 0;
