#N canvas 142 -11 1920 976 12;
#X obj 100 105 oscparse;
#X obj 100 129 list trim;
#X obj 100 153 route cap;
#X obj 100 177 f;
#X floatatom 81 229 5 0 0 0 - - - 0;
#X obj 346 103 oscparse;
#X obj 345 133 list trim;
#X obj 345 157 route cap;
#X obj 345 181 f;
#X floatatom 345 207 5 0 0 0 - - - 0;
#X obj 588 103 oscparse;
#X obj 588 127 list trim;
#X obj 588 151 route cap;
#X obj 588 175 f;
#X floatatom 588 201 5 0 0 0 - - - 0;
#X obj 111 808 netsend -u -b;
#X obj 75 676 oscformat /qlc/1;
#X obj 247 628 oscformat /qlc/2;
#X obj 404 624 oscformat /qlc/3;
#X obj 130 259 > 400;
#X obj 130 283 tgl 19 0 empty empty empty 0 -10 0 12 #fcfcfc #000000 #000000 0 1;
#X obj 128 310 change;
#X obj 80 291 bng 19 250 50 0 empty empty empty 0 -10 0 12 #fcfcfc #000000 #000000;
#X obj 80 350 bng 19 250 50 0 empty empty empty 0 -10 0 12 #fcfcfc #000000 #000000;
#X obj 283 722 loadbang;
#X msg 281 762 connect 192.168.1.150 10001;
#X obj 383 255 > 400;
#X obj 383 279 tgl 19 0 empty empty empty 0 -10 0 12 #fcfcfc #000000 #000000 0 1;
#X obj 381 306 change;
#X obj 333 287 bng 19 250 50 0 empty empty empty 0 -10 0 12 #fcfcfc #000000 #000000;
#X obj 333 346 bng 19 250 50 0 empty empty empty 0 -10 0 12 #fcfcfc #000000 #000000;
#X obj 635 253 > 400;
#X obj 635 277 tgl 19 0 empty empty empty 0 -10 0 12 #fcfcfc #000000 #000000 0 1;
#X obj 632 304 change;
#X obj 577 284 bng 19 250 50 0 empty empty empty 0 -10 0 12 #fcfcfc #000000 #000000;
#X obj 577 347 bng 19 250 50 0 empty empty empty 0 -10 0 12 #fcfcfc #000000 #000000;
#X obj 101 78 netreceive -u -b 8001;
#X obj 344 76 netreceive -u -b 8002;
#X obj 587 77 netreceive -u -b 8003;
#X obj 207 339 - 200;
#X floatatom 206 413 5 0 0 0 - - - 0;
#X obj 193 528 clip 0 1;
#X floatatom 148 574 5 0 0 0 - - - 0;
#X obj 208 480 / 800;
#X obj 190 189 pack f 50;
#X obj 228 266 float;
#X obj 196 235 line;
#X connect 0 0 1 0;
#X connect 1 0 2 0;
#X connect 2 0 3 0;
#X connect 3 0 44 0;
#X connect 4 0 39 0;
#X connect 5 0 6 0;
#X connect 6 0 7 0;
#X connect 7 0 8 0;
#X connect 8 0 9 0;
#X connect 9 0 26 0;
#X connect 10 0 11 0;
#X connect 11 0 12 0;
#X connect 12 0 13 0;
#X connect 13 0 14 0;
#X connect 14 0 31 0;
#X connect 16 0 15 0;
#X connect 17 0 15 0;
#X connect 18 0 15 0;
#X connect 19 0 20 0;
#X connect 19 0 22 0;
#X connect 20 0 21 0;
#X connect 21 0 23 0;
#X connect 24 0 25 0;
#X connect 25 0 15 0;
#X connect 26 0 27 0;
#X connect 26 0 29 0;
#X connect 27 0 28 0;
#X connect 28 0 30 0;
#X connect 28 0 17 0;
#X connect 31 0 32 0;
#X connect 31 0 34 0;
#X connect 32 0 33 0;
#X connect 33 0 35 0;
#X connect 33 0 18 0;
#X connect 36 0 0 0;
#X connect 37 0 5 0;
#X connect 38 0 10 0;
#X connect 39 0 40 0;
#X connect 40 0 43 0;
#X connect 41 0 42 0;
#X connect 42 0 16 0;
#X connect 43 0 41 0;
#X connect 44 0 46 0;
#X connect 45 0 4 0;
#X connect 46 0 45 0;
