#N canvas 1916 0 1920 976 12;
#X obj 82 99 oscparse;
#X obj 82 123 list trim;
#X obj 84 157 route cap;
#X obj 86 185 f;
#X floatatom 80 360 5 0 0 0 - - - 0;
#X obj 73 664 oscformat /qlc/1;
#X obj 486 633 oscformat /qlc/2;
#X obj 992 615 oscformat /qlc/3;
#X obj 122 812 loadbang;
#X obj 83 72 netreceive -u -b 8001;
#X obj 504 51 netreceive -u -b 8002;
#X obj 992 41 netreceive -u -b 8003;
#X floatatom 79 430 5 0 0 0 - - - 0;
#X obj 80 503 clip 0 1;
#X floatatom 84 541 5 0 0 0 - - - 0;
#X obj 79 327 float;
#X obj 78 251 pack f 7000;
#X floatatom 84 215 5 0 0 0 - - - 0;
#X floatatom 78 275 5 0 0 0 - - - 0;
#X obj 77 584 > 0.15;
#X obj 504 85 oscparse;
#X obj 504 109 list trim;
#X obj 506 143 route cap;
#X obj 506 173 f;
#X floatatom 502 346 5 0 0 0 - - - 0;
#X floatatom 501 416 5 0 0 0 - - - 0;
#X obj 502 489 clip 0 1;
#X floatatom 506 527 5 0 0 0 - - - 0;
#X obj 501 452 / 800;
#X obj 501 313 float;
#X obj 499 288 line;
#X obj 505 229 pack f 7000;
#X floatatom 506 201 5 0 0 0 - - - 0;
#X floatatom 498 263 5 0 0 0 - - - 0;
#X obj 499 570 > 0.15;
#X obj 991 74 oscparse;
#X obj 991 98 list trim;
#X obj 993 132 route cap;
#X obj 995 160 f;
#X floatatom 996 337 5 0 0 0 - - - 0;
#X obj 994 367 - 200;
#X floatatom 995 407 5 0 0 0 - - - 0;
#X obj 996 480 clip 0 1;
#X floatatom 1000 518 5 0 0 0 - - - 0;
#X obj 995 443 / 800;
#X obj 995 304 float;
#X obj 995 277 line;
#X obj 994 228 pack f 7000;
#X floatatom 993 190 5 0 0 0 - - - 0;
#X floatatom 994 252 5 0 0 0 - - - 0;
#X obj 993 561 > 0.15;
#X msg 119 853 connect 192.168.1.150 10001;
#X msg 119 924 disconnect;
#X obj 120 886 netsend -u -b;
#X obj 364 894 netsend -u -b;
#X msg 366 930 disconnect;
#X obj 201 593 netsend -u -b;
#X msg 355 548 disconnect;
#X msg 240 511 connect 192.168.1.150 10003;
#X obj 309 724 t a a a;
#X obj 368 815 loadbang;
#X obj 244 472 loadbang;
#X obj 195 329 change;
#X obj 194 263 > 400;
#X obj 195 295 tgl 19 0 empty empty empty 0 -10 0 12 #fcfcfc #000000 #000000 0 1;
#X floatatom 197 364 5 0 0 0 - - - 0;
#X obj 199 393 oscformat /beta;
#X obj 215 441 oscformat /alpha;
#X obj 590 868 netsend -u -b;
#X msg 592 904 disconnect;
#X obj 594 789 loadbang;
#X msg 377 852 connect 192.168.1.178 10002;
#X obj 663 578 netsend -u -b;
#X msg 817 533 disconnect;
#X obj 730 457 loadbang;
#X obj 657 314 change;
#X obj 656 248 > 400;
#X obj 657 280 tgl 19 0 empty empty empty 0 -10 0 12 #fcfcfc #000000 #000000 0 1;
#X floatatom 659 349 5 0 0 0 - - - 0;
#X obj 661 378 oscformat /beta;
#X obj 681 417 oscformat /alpha;
#X msg 709 499 connect 192.168.1.150 10005;
#X obj 1167 573 netsend -u -b;
#X msg 1249 534 disconnect;
#X obj 1216 452 loadbang;
#X obj 1161 309 change;
#X obj 1160 243 > 400;
#X obj 1161 275 tgl 19 0 empty empty empty 0 -10 0 12 #fcfcfc #000000 #000000 0 1;
#X floatatom 1163 344 5 0 0 0 - - - 0;
#X obj 1165 373 oscformat /beta;
#X obj 1182 420 oscformat /alpha;
#X msg 1217 494 connect 192.168.1.150 10007;
#X msg 603 826 connect 192.168.1.140 10004;
#X obj 79 466 / 800;
#X msg 984 735 connect 192.168.1.150 10008;
#X obj 251 656 oscformat /qlc/4;
#X obj 500 376 - 100;
#X obj 78 390 - 100;
#X connect 0 0 1 0;
#X connect 1 0 2 0;
#X connect 2 0 3 0;
#X connect 3 0 17 0;
#X connect 4 0 97 0;
#X connect 5 0 59 0;
#X connect 6 0 59 0;
#X connect 7 0 59 0;
#X connect 8 0 51 0;
#X connect 9 0 0 0;
#X connect 10 0 20 0;
#X connect 11 0 35 0;
#X connect 12 0 93 0;
#X connect 13 0 14 0;
#X connect 14 0 19 0;
#X connect 14 0 67 0;
#X connect 15 0 4 0;
#X connect 16 0 18 0;
#X connect 17 0 16 0;
#X connect 17 0 63 0;
#X connect 18 0 15 0;
#X connect 19 0 5 0;
#X connect 19 0 95 0;
#X connect 20 0 21 0;
#X connect 21 0 22 0;
#X connect 22 0 23 0;
#X connect 23 0 32 0;
#X connect 24 0 96 0;
#X connect 25 0 28 0;
#X connect 26 0 27 0;
#X connect 27 0 34 0;
#X connect 27 0 80 0;
#X connect 28 0 26 0;
#X connect 29 0 24 0;
#X connect 30 0 29 0;
#X connect 31 0 33 0;
#X connect 32 0 31 0;
#X connect 32 0 76 0;
#X connect 33 0 30 0;
#X connect 34 0 6 0;
#X connect 35 0 36 0;
#X connect 36 0 37 0;
#X connect 37 0 38 0;
#X connect 38 0 48 0;
#X connect 39 0 40 0;
#X connect 40 0 41 0;
#X connect 41 0 44 0;
#X connect 42 0 43 0;
#X connect 43 0 50 0;
#X connect 43 0 90 0;
#X connect 44 0 42 0;
#X connect 45 0 39 0;
#X connect 46 0 45 0;
#X connect 47 0 49 0;
#X connect 48 0 47 0;
#X connect 48 0 86 0;
#X connect 49 0 46 0;
#X connect 50 0 7 0;
#X connect 51 0 53 0;
#X connect 52 0 53 0;
#X connect 55 0 54 0;
#X connect 57 0 56 0;
#X connect 58 0 56 0;
#X connect 59 0 53 0;
#X connect 59 1 54 0;
#X connect 59 2 68 0;
#X connect 60 0 71 0;
#X connect 61 0 58 0;
#X connect 62 0 65 0;
#X connect 63 0 64 0;
#X connect 64 0 62 0;
#X connect 65 0 66 0;
#X connect 66 0 56 0;
#X connect 67 0 56 0;
#X connect 69 0 68 0;
#X connect 70 0 92 0;
#X connect 71 0 54 0;
#X connect 73 0 72 0;
#X connect 74 0 81 0;
#X connect 75 0 78 0;
#X connect 76 0 77 0;
#X connect 77 0 75 0;
#X connect 78 0 79 0;
#X connect 79 0 72 0;
#X connect 80 0 72 0;
#X connect 81 0 72 0;
#X connect 83 0 82 0;
#X connect 84 0 91 0;
#X connect 85 0 88 0;
#X connect 86 0 87 0;
#X connect 87 0 85 0;
#X connect 88 0 89 0;
#X connect 89 0 82 0;
#X connect 90 0 82 0;
#X connect 91 0 82 0;
#X connect 92 0 68 0;
#X connect 93 0 13 0;
#X connect 95 0 59 0;
#X connect 96 0 25 0;
#X connect 97 0 12 0;
