#N canvas -8 9 1920 976 12;
#X obj 100 105 oscparse;
#X obj 100 129 list trim;
#X obj 100 153 route cap;
#X obj 100 177 f;
#X floatatom 102 301 5 0 0 0 - - - 0;
#X obj 570 108 oscparse;
#X obj 569 138 list trim;
#X obj 569 162 route cap;
#X obj 569 186 f;
#X obj 810 105 oscparse;
#X obj 810 129 list trim;
#X obj 810 153 route cap;
#X obj 810 177 f;
#X obj 119 874 netsend -u -b;
#X obj 76 629 oscformat /qlc/1;
#X obj 490 622 oscformat /qlc/2;
#X obj 647 618 oscformat /qlc/3;
#X obj 700 697 loadbang;
#X msg 542 769 connect 192.168.1.150 10001;
#X obj 101 78 netreceive -u -b 8001;
#X obj 568 81 netreceive -u -b 8002;
#X obj 809 79 netreceive -u -b 8003;
#X obj 100 331 - 200;
#X floatatom 101 371 5 0 0 0 - - - 0;
#X obj 102 472 clip 0 1;
#X floatatom 99 520 5 0 0 0 - - - 0;
#X obj 97 446 / 800;
#X obj 101 268 float;
#X obj 100 233 line;
#X floatatom 571 314 5 0 0 0 - - - 0;
#X obj 569 344 - 200;
#X floatatom 570 384 5 0 0 0 - - - 0;
#X obj 571 485 clip 0 1;
#X floatatom 570 525 5 0 0 0 - - - 0;
#X obj 568 435 / 800;
#X obj 570 281 float;
#X obj 569 246 line;
#X obj 569 219 pack f 1000;
#X floatatom 813 312 5 0 0 0 - - - 0;
#X obj 811 342 - 200;
#X floatatom 812 382 5 0 0 0 - - - 0;
#X obj 813 483 clip 0 1;
#X floatatom 812 523 5 0 0 0 - - - 0;
#X obj 810 433 / 800;
#X obj 812 279 float;
#X obj 811 244 line;
#X obj 811 217 pack f 1000;
#X msg 763 770 connect 192.168.1.150 8004;
#X obj 100 206 pack f 300;
#X obj 218 467 * 3;
#X obj 218 504 * 1000;
#X obj 216 543 oscformat /qlc/chaser/rose/step/0/duration;
#X obj 144 400 t f f;
#X obj 351 618;
#X floatatom 233 595 5 0 0 0 - - - 0;
#X connect 0 0 1 0;
#X connect 1 0 2 0;
#X connect 2 0 3 0;
#X connect 3 0 48 0;
#X connect 4 0 22 0;
#X connect 5 0 6 0;
#X connect 6 0 7 0;
#X connect 7 0 8 0;
#X connect 8 0 37 0;
#X connect 9 0 10 0;
#X connect 10 0 11 0;
#X connect 11 0 12 0;
#X connect 12 0 46 0;
#X connect 14 0 13 0;
#X connect 15 0 13 0;
#X connect 16 0 13 0;
#X connect 17 0 18 0;
#X connect 17 0 47 0;
#X connect 18 0 13 0;
#X connect 19 0 0 0;
#X connect 20 0 5 0;
#X connect 21 0 9 0;
#X connect 22 0 23 0;
#X connect 23 0 52 0;
#X connect 24 0 25 0;
#X connect 25 0 14 0;
#X connect 26 0 24 0;
#X connect 27 0 4 0;
#X connect 28 0 27 0;
#X connect 29 0 30 0;
#X connect 30 0 31 0;
#X connect 31 0 34 0;
#X connect 32 0 33 0;
#X connect 33 0 15 0;
#X connect 34 0 32 0;
#X connect 35 0 29 0;
#X connect 36 0 35 0;
#X connect 37 0 36 0;
#X connect 38 0 39 0;
#X connect 39 0 40 0;
#X connect 40 0 43 0;
#X connect 41 0 42 0;
#X connect 42 0 16 0;
#X connect 43 0 41 0;
#X connect 44 0 38 0;
#X connect 45 0 44 0;
#X connect 46 0 45 0;
#X connect 47 0 13 0;
#X connect 48 0 28 0;
#X connect 49 0 50 0;
#X connect 50 0 51 0;
#X connect 51 0 54 0;
#X connect 52 0 26 0;
#X connect 52 1 49 0;
#X connect 54 0 13 0;
